<svg width="50" height="51" viewBox="0 0 50 51" fill="none" xmlns="http://www.w3.org/2000/svg">
<rect y="0.5" width="50" height="50" rx="10" fill="#52D789" fill-opacity="0.2"/>
<path fill-rule="evenodd" clip-rule="evenodd" d="M37.5 25.5C37.5 32.4036 31.9036 38 25 38C18.0964 38 12.5 32.4036 12.5 25.5C12.5 18.5964 18.0964 13 25 13C31.9036 13 37.5 18.5964 37.5 25.5ZM24.075 30.1625C24.075 30.675 24.4875 31.1 25.0125 31.1C25.5375 31.1 25.95 30.675 25.95 30.1625C25.95 29.65 25.5375 29.225 25.0125 29.225C24.4875 29.225 24.075 29.65 24.075 30.1625ZM25.95 26.8C25.95 26.45 26.1 26.2375 26.5875 25.9125C26.975 25.65 28.025 24.9375 28.025 23.5125C28.025 21.85 26.675 20.5 25.0125 20.5C23.35 20.5 22 21.85 22 23.5125C22 24.025 22.425 24.45 22.9375 24.45C23.45 24.45 23.875 24.025 23.875 23.5125C23.875 22.8875 24.3875 22.375 25.0125 22.375C25.6375 22.375 26.15 22.8875 26.15 23.5125C26.15 23.8375 26 24.05 25.5375 24.3625L25.523 24.3725C25.1124 24.6545 24.075 25.3672 24.075 26.8V27.0625C24.075 27.575 24.5 28 25.0125 28C25.525 28 25.95 27.575 25.95 27.0625V26.8Z" fill="#52D789"/>
</svg>
