<svg width="50" height="51" viewBox="0 0 50 51" fill="none" xmlns="http://www.w3.org/2000/svg">
<rect y="0.5" width="50" height="50" rx="10" fill="#52D789" fill-opacity="0.2"/>
<path d="M18.75 13H17.5C13.75 13 12.5 15.2375 12.5 18V19.25V36.75C12.5 37.7875 13.675 38.375 14.5 37.75L16.6375 36.15C17.1375 35.775 17.8375 35.825 18.2875 36.275L20.3625 38.3625C20.85 38.85 21.65 38.85 22.1375 38.3625L24.2375 36.2625C24.675 35.825 25.375 35.775 25.8625 36.15L28 37.75C28.825 38.3625 30 37.775 30 36.75V15.5C30 14.125 31.125 13 32.5 13H18.75ZM17.4625 28.0125C16.775 28.0125 16.2125 27.45 16.2125 26.7625C16.2125 26.075 16.775 25.5125 17.4625 25.5125C18.15 25.5125 18.7125 26.075 18.7125 26.7625C18.7125 27.45 18.15 28.0125 17.4625 28.0125ZM17.4625 23.0125C16.775 23.0125 16.2125 22.45 16.2125 21.7625C16.2125 21.075 16.775 20.5125 17.4625 20.5125C18.15 20.5125 18.7125 21.075 18.7125 21.7625C18.7125 22.45 18.15 23.0125 17.4625 23.0125ZM25 27.7H21.25C20.7375 27.7 20.3125 27.275 20.3125 26.7625C20.3125 26.25 20.7375 25.825 21.25 25.825H25C25.5125 25.825 25.9375 26.25 25.9375 26.7625C25.9375 27.275 25.5125 27.7 25 27.7ZM25 22.7H21.25C20.7375 22.7 20.3125 22.275 20.3125 21.7625C20.3125 21.25 20.7375 20.825 21.25 20.825H25C25.5125 20.825 25.9375 21.25 25.9375 21.7625C25.9375 22.275 25.5125 22.7 25 22.7Z" fill="#52D789"/>
<path d="M32.5125 13V14.875C33.3375 14.875 34.125 15.2125 34.7 15.775C35.3 16.3875 35.625 17.175 35.625 18V21.025C35.625 21.95 35.2125 22.375 34.275 22.375H31.875V15.5125C31.875 15.1625 32.1625 14.875 32.5125 14.875V13ZM32.5125 13C31.125 13 30 14.125 30 15.5125V24.25H34.275C36.25 24.25 37.5 23 37.5 21.025V18C37.5 16.625 36.9375 15.375 36.0375 14.4625C35.125 13.5625 33.8875 13.0125 32.5125 13C32.525 13 32.5125 13 32.5125 13Z" fill="#52D789"/>
</svg>
