<svg width="50" height="51" viewBox="0 0 50 51" fill="none" xmlns="http://www.w3.org/2000/svg">
<rect y="0.5" width="50" height="50" rx="10" fill="#52D789" fill-opacity="0.2"/>
<path d="M12.125 35.8C12.1375 35.7875 12.1375 35.775 12.1375 35.775L19.0125 28.9C19.025 28.8875 19.0375 28.8875 19.05 28.875C18.2625 28.325 17.3 28 16.25 28C13.4875 28 11.25 30.2375 11.25 33C11.25 33.9375 11.5125 34.825 11.975 35.575C12.025 35.65 12.075 35.725 12.125 35.8Z" fill="#52D789"/>
<path d="M20.375 30.1875C20.3625 30.2 20.3625 30.2125 20.35 30.225L13.475 37.1C13.4625 37.1125 13.45 37.1125 13.4375 37.125C14.2375 37.675 15.2 38 16.25 38C18.075 38 19.6625 37.025 20.525 35.575C20.9875 34.825 21.25 33.9375 21.25 33C21.25 31.95 20.925 30.9875 20.375 30.1875Z" fill="#52D789"/>
<path d="M31.25 15.5H18.75C15 15.5 12.5 17.375 12.5 21.75V26.2C12.5 26.6625 12.975 26.95 13.3875 26.7625C14.6125 26.2 16.025 25.9875 17.5125 26.25C20.8 26.8375 23.2125 29.8875 23.125 33.225C23.1125 33.75 23.0375 34.2625 22.9 34.7625C22.8 35.15 23.1125 35.5125 23.5125 35.5125H31.25C35 35.5125 37.5 33.6375 37.5 29.2625V21.75C37.5 17.375 35 15.5 31.25 15.5ZM25 28.625C23.275 28.625 21.875 27.225 21.875 25.5C21.875 23.775 23.275 22.375 25 22.375C26.725 22.375 28.125 23.775 28.125 25.5C28.125 27.225 26.725 28.625 25 28.625ZM34.0625 28C34.0625 28.5125 33.6375 28.9375 33.125 28.9375C32.6125 28.9375 32.1875 28.5125 32.1875 28V23C32.1875 22.4875 32.6125 22.0625 33.125 22.0625C33.6375 22.0625 34.0625 22.4875 34.0625 23V28Z" fill="#52D789"/>
</svg>
