<svg width="50" height="51" viewBox="0 0 50 51" fill="none" xmlns="http://www.w3.org/2000/svg">
<rect y="0.5" width="50" height="50" rx="10" fill="#52D789" fill-opacity="0.2"/>
<path d="M35.0498 19.0251L27.8498 13.9876C25.8873 12.6126 22.8748 12.6876 20.9873 14.1501L14.7248 19.0376C13.4748 20.0126 12.4873 22.0126 12.4873 23.5876V32.2126C12.4873 35.4001 15.0748 38.0001 18.2623 38.0001H31.7373C34.9248 38.0001 37.5123 35.4126 37.5123 32.2251V23.7501C37.5123 22.0626 36.4248 19.9876 35.0498 19.0251ZM31.0998 27.2501C31.0998 27.7376 30.7123 28.1251 30.2248 28.1251C29.7373 28.1251 29.3498 27.7376 29.3498 27.2501V27.0251L25.9498 30.4251C25.7623 30.6126 25.5123 30.7001 25.2498 30.6751C24.9998 30.6501 24.7623 30.5001 24.6248 30.2876L23.3498 28.3876L20.3748 31.3626C20.1998 31.5376 19.9873 31.6126 19.7623 31.6126C19.5373 31.6126 19.3123 31.5251 19.1498 31.3626C18.8123 31.0251 18.8123 30.4751 19.1498 30.1251L22.8748 26.4001C23.0623 26.2126 23.3123 26.1251 23.5748 26.1501C23.8373 26.1751 24.0748 26.3126 24.2123 26.5376L25.4873 28.4376L28.1248 25.8001H27.8998C27.4123 25.8001 27.0248 25.4126 27.0248 24.9251C27.0248 24.4376 27.4123 24.0501 27.8998 24.0501H30.2248C30.3373 24.0501 30.4498 24.0751 30.5623 24.1126C30.7748 24.2001 30.9498 24.3751 31.0373 24.5876C31.0873 24.7001 31.0998 24.8126 31.0998 24.9251V27.2501Z" fill="#52D789"/>
</svg>
