<svg width="50" height="50" viewBox="0 0 50 50" fill="none" xmlns="http://www.w3.org/2000/svg">
<rect width="50" height="50" rx="10" fill="#52D789" fill-opacity="0.2"/>
<path d="M31.25 13.0371H18.75C15 13.0371 12.5 15.5371 12.5 19.2871V26.7871C12.5 30.5371 15 33.0371 18.75 33.0371V35.6996C18.75 36.6996 19.8625 37.2996 20.6875 36.7371L26.25 33.0371H31.25C35 33.0371 37.5 30.5371 37.5 26.7871V19.2871C37.5 15.5371 35 13.0371 31.25 13.0371ZM25 28.2496C24.475 28.2496 24.0625 27.8246 24.0625 27.3121C24.0625 26.7996 24.475 26.3746 25 26.3746C25.525 26.3746 25.9375 26.7996 25.9375 27.3121C25.9375 27.8246 25.525 28.2496 25 28.2496ZM26.575 23.0621C26.0875 23.3871 25.9375 23.5996 25.9375 23.9496V24.2121C25.9375 24.7246 25.5125 25.1496 25 25.1496C24.4875 25.1496 24.0625 24.7246 24.0625 24.2121V23.9496C24.0625 22.4996 25.125 21.7871 25.525 21.5121C25.9875 21.1996 26.1375 20.9871 26.1375 20.6621C26.1375 20.0371 25.625 19.5246 25 19.5246C24.375 19.5246 23.8625 20.0371 23.8625 20.6621C23.8625 21.1746 23.4375 21.5996 22.925 21.5996C22.4125 21.5996 21.9875 21.1746 21.9875 20.6621C21.9875 18.9996 23.3375 17.6496 25 17.6496C26.6625 17.6496 28.0125 18.9996 28.0125 20.6621C28.0125 22.0871 26.9625 22.7996 26.575 23.0621Z" fill="#52D789"/>
</svg>
