<svg width="642" height="642" viewBox="0 0 642 642" fill="none" xmlns="http://www.w3.org/2000/svg">
<path fill-rule="evenodd" clip-rule="evenodd" d="M503.531 550.234L597.523 98.1264C599.942 86.4675 588.487 76.7409 577.384 81.0345L53.6352 283.083C40.7086 288.062 40.8194 306.364 53.7829 311.22L181.401 358.849L230.797 517.708C233.959 527.876 246.4 531.638 254.655 524.887L325.793 466.898C333.25 460.818 343.872 460.518 351.661 466.174L479.968 559.327C488.8 565.745 501.317 560.908 503.531 550.234Z" fill="#D9D9D9"/>
<path fill-rule="evenodd" clip-rule="evenodd" d="M472.253 179.883L222.84 333.495C213.28 339.394 208.781 350.939 211.865 361.747L238.831 456.5C240.749 463.213 250.49 462.527 251.423 455.591L258.432 403.63C259.756 393.847 264.42 384.829 271.657 378.096L477.493 186.761C481.347 183.192 476.733 177.131 472.253 179.883Z" fill="black"/>
<rect x="6.5" y="6.5" width="629" height="629" stroke="white" stroke-width="13"/>
</svg>
