<svg width="50" height="50" viewBox="0 0 50 50" fill="none" xmlns="http://www.w3.org/2000/svg">
<rect width="50" height="50" rx="10" fill="#52D789" fill-opacity="0.2"/>
<path d="M35.7501 15.125V17.875C35.7501 18.875 35.1251 20.125 34.5001 20.75L29.1251 25.5C28.3751 26.125 27.8751 27.375 27.8751 28.375V33.75C27.8751 34.5 27.3751 35.5 26.7501 35.875L25.0001 37C23.3751 38 21.1251 36.875 21.1251 34.875V28.25C21.1251 27.375 20.6251 26.25 20.1251 25.625L19.5376 25.0125C19.1501 24.6 19.0751 23.975 19.3876 23.4875L25.7876 13.2125C26.0126 12.85 26.4126 12.625 26.8501 12.625H33.2501C34.6251 12.625 35.7501 13.75 35.7501 15.125Z" fill="#52D789"/>
<path d="M22.9375 14.5375L18.5 21.65C18.075 22.3375 17.1 22.4375 16.5375 21.85L15.375 20.625C14.75 20 14.25 18.875 14.25 18.125V15.25C14.25 13.75 15.375 12.625 16.75 12.625H21.875C22.85 12.625 23.45 13.7 22.9375 14.5375Z" fill="#52D789"/>
</svg>
