<svg width="50" height="50" viewBox="0 0 50 50" fill="none" xmlns="http://www.w3.org/2000/svg">
<rect width="50" height="50" rx="10" fill="#52D789" fill-opacity="0.2"/>
<path d="M34.7876 20.8748L29.1251 15.2123C27.9376 14.0248 26.3001 13.3873 24.6251 13.4748L18.3751 13.7748C15.8751 13.8873 13.8876 15.8748 13.7626 18.3623L13.4626 24.6123C13.3876 26.2873 14.0126 27.9248 15.2001 29.1123L20.8626 34.7748C23.1876 37.0998 26.9626 37.0998 29.3001 34.7748L34.7876 29.2873C37.1251 26.9748 37.1251 23.1998 34.7876 20.8748ZM21.8751 25.4748C19.9001 25.4748 18.2751 23.8623 18.2751 21.8748C18.2751 19.8873 19.9001 18.2748 21.8751 18.2748C23.8501 18.2748 25.4751 19.8873 25.4751 21.8748C25.4751 23.8623 23.8501 25.4748 21.8751 25.4748ZM31.9126 26.9123L26.9126 31.9123C26.7251 32.0998 26.4876 32.1873 26.2501 32.1873C26.0126 32.1873 25.7751 32.0998 25.5876 31.9123C25.2251 31.5498 25.2251 30.9498 25.5876 30.5873L30.5876 25.5873C30.9501 25.2248 31.5501 25.2248 31.9126 25.5873C32.2751 25.9498 32.2751 26.5498 31.9126 26.9123Z" fill="#52D789"/>
</svg>
