<svg width="642" height="642" viewBox="0 0 642 642" fill="none" xmlns="http://www.w3.org/2000/svg">
<path d="M520.655 363.32C539.02 381.236 558.44 398.105 574.923 417.911C582.206 426.664 589.094 435.692 594.345 445.834C601.798 460.364 595.043 476.283 582.063 477.16L501.404 477.125C480.585 478.836 463.994 470.442 450.002 456.199C438.876 444.858 428.476 432.719 417.734 420.993C413.364 416.165 408.741 411.65 403.248 408.049C392.229 400.909 382.672 403.077 376.374 414.553C369.968 426.244 368.463 439.223 367.872 452.241C366.995 471.242 361.261 476.213 342.19 477.127C301.385 479.017 262.686 472.818 226.745 452.276C195.006 434.154 170.443 408.533 149.059 379.562C107.385 323.08 75.4681 261.073 46.8105 197.28C40.3331 182.903 45.0646 175.198 60.8747 174.92C87.2307 174.4 113.576 174.463 139.895 174.885C150.601 175.065 157.705 181.183 161.8 191.297C176.043 226.296 193.465 259.604 215.334 290.509C221.184 298.732 227.132 306.92 235.561 312.726C244.905 319.167 252.045 317.062 256.451 306.599C259.255 299.953 260.483 292.884 261.073 285.779C263.169 261.458 263.421 237.109 259.811 212.86C257.571 197.702 249 187.902 233.886 185.036C226.181 183.566 227.336 180.735 231.046 176.318C237.559 168.731 243.686 164 255.825 164H346.985C361.362 166.804 364.586 173.28 366.54 187.731L366.612 289.039C366.441 294.637 369.416 311.219 379.458 314.892C387.501 317.553 392.859 311.075 397.687 305.969C419.519 282.803 435.097 255.409 449.017 227.065C455.18 214.604 460.502 201.66 465.68 188.705C469.495 179.119 475.443 174.398 486.257 174.569L574.021 174.676C576.609 174.676 579.271 174.676 581.824 175.096C596.586 177.649 600.646 184.019 596.059 198.469C588.892 221.106 574.855 240.007 561.175 258.936C546.51 279.2 530.905 298.755 516.349 319.126C503.053 337.779 504.101 347.158 520.655 363.32Z" fill="white"/>
<path d="M520.655 363.32C539.02 381.236 558.44 398.105 574.923 417.911C582.206 426.664 589.094 435.692 594.345 445.834C601.798 460.364 595.043 476.283 582.063 477.16L501.404 477.125C480.585 478.836 463.994 470.442 450.002 456.199C438.876 444.858 428.476 432.719 417.734 420.993C413.364 416.165 408.741 411.65 403.248 408.049C392.229 400.909 382.672 403.077 376.374 414.553C369.968 426.244 368.463 439.223 367.872 452.241C366.995 471.242 361.261 476.213 342.19 477.127C301.385 479.017 262.686 472.818 226.745 452.276C195.006 434.154 170.443 408.533 149.059 379.562C107.385 323.08 75.4681 261.073 46.8105 197.28C40.3331 182.903 45.0646 175.198 60.8747 174.92C87.2307 174.4 113.576 174.463 139.895 174.885C150.601 175.065 157.705 181.183 161.8 191.297C176.043 226.296 193.465 259.604 215.334 290.509C221.184 298.732 227.132 306.92 235.561 312.726C244.905 319.167 252.045 317.062 256.451 306.599C259.255 299.953 260.483 292.884 261.073 285.779C263.169 261.458 263.421 237.109 259.811 212.86C257.571 197.702 249 187.902 233.886 185.036C226.181 183.566 227.336 180.735 231.046 176.318C237.559 168.731 243.686 164 255.825 164H346.985C361.362 166.804 364.586 173.28 366.54 187.731L366.612 289.039C366.441 294.637 369.416 311.219 379.458 314.892C387.501 317.553 392.859 311.075 397.687 305.969C419.519 282.803 435.097 255.409 449.017 227.065C455.18 214.604 460.502 201.66 465.68 188.705C469.495 179.119 475.443 174.398 486.257 174.569L574.021 174.676C576.609 174.676 579.271 174.676 581.824 175.096C596.586 177.649 600.646 184.019 596.059 198.469C588.892 221.106 574.855 240.007 561.175 258.936C546.51 279.2 530.905 298.755 516.349 319.126C503.053 337.779 504.101 347.158 520.655 363.32Z" fill="white"/>
<rect x="6.5" y="6.5" width="629" height="629" stroke="white" stroke-width="13"/>
</svg>
