<svg width="50" height="51" viewBox="0 0 50 51" fill="none" xmlns="http://www.w3.org/2000/svg">
<rect y="0.5" width="50" height="50" rx="10" fill="white" fill-opacity="0.1"/>
<path d="M18.75 13H17.5C13.75 13 12.5 15.2375 12.5 18V19.25V36.75C12.5 37.7875 13.675 38.375 14.5 37.75L16.6375 36.15C17.1375 35.775 17.8375 35.825 18.2875 36.275L20.3625 38.3625C20.85 38.85 21.65 38.85 22.1375 38.3625L24.2375 36.2625C24.675 35.825 25.375 35.775 25.8625 36.15L28 37.75C28.825 38.3625 30 37.775 30 36.75V15.5C30 14.125 31.125 13 32.5 13H18.75ZM24.6875 23.9375H17.8125C17.3 23.9375 16.875 23.5125 16.875 23C16.875 22.4875 17.3 22.0625 17.8125 22.0625H24.6875C25.2 22.0625 25.625 22.4875 25.625 23C25.625 23.5125 25.2 23.9375 24.6875 23.9375Z" fill="#DF3984"/>
<path d="M32.5125 13V14.875C33.3375 14.875 34.125 15.2125 34.7 15.775C35.3 16.3875 35.625 17.175 35.625 18V21.025C35.625 21.95 35.2125 22.375 34.275 22.375H31.875V15.5125C31.875 15.1625 32.1625 14.875 32.5125 14.875V13ZM32.5125 13C31.125 13 30 14.125 30 15.5125V24.25H34.275C36.25 24.25 37.5 23 37.5 21.025V18C37.5 16.625 36.9375 15.375 36.0375 14.4625C35.125 13.5625 33.8875 13.0125 32.5125 13C32.525 13 32.5125 13 32.5125 13Z" fill="#DF3984"/>
</svg>
