<svg width="50" height="51" viewBox="0 0 50 51" fill="none" xmlns="http://www.w3.org/2000/svg">
<rect y="0.5" width="50" height="50" rx="10" fill="white" fill-opacity="0.1"/>
<path d="M31.25 13.5381H18.75C15 13.5381 12.5 16.0381 12.5 19.7881V27.2881C12.5 31.0381 15 33.5381 18.75 33.5381V36.2006C18.75 37.2006 19.8625 37.8006 20.6875 37.2381L26.25 33.5381H31.25C35 33.5381 37.5 31.0381 37.5 27.2881V19.7881C37.5 16.0381 35 13.5381 31.25 13.5381ZM25 28.7506C24.475 28.7506 24.0625 28.3256 24.0625 27.8131C24.0625 27.3006 24.475 26.8756 25 26.8756C25.525 26.8756 25.9375 27.3006 25.9375 27.8131C25.9375 28.3256 25.525 28.7506 25 28.7506ZM26.575 23.5631C26.0875 23.8881 25.9375 24.1006 25.9375 24.4506V24.7131C25.9375 25.2256 25.5125 25.6506 25 25.6506C24.4875 25.6506 24.0625 25.2256 24.0625 24.7131V24.4506C24.0625 23.0006 25.125 22.2881 25.525 22.0131C25.9875 21.7006 26.1375 21.4881 26.1375 21.1631C26.1375 20.5381 25.625 20.0256 25 20.0256C24.375 20.0256 23.8625 20.5381 23.8625 21.1631C23.8625 21.6756 23.4375 22.1006 22.925 22.1006C22.4125 22.1006 21.9875 21.6756 21.9875 21.1631C21.9875 19.5006 23.3375 18.1506 25 18.1506C26.6625 18.1506 28.0125 19.5006 28.0125 21.1631C28.0125 22.5881 26.9625 23.3006 26.575 23.5631Z" fill="#DF3984"/>
</svg>
