<svg width="50" height="51" viewBox="0 0 50 51" fill="none" xmlns="http://www.w3.org/2000/svg">
<rect y="0.5" width="50" height="50" rx="10" fill="white" fill-opacity="0.1"/>
<path d="M30.2375 13H19.7625C15.2125 13 12.5 15.7125 12.5 20.2625V30.725C12.5 35.2875 15.2125 38 19.7625 38H30.225C34.775 38 37.4875 35.2875 37.4875 30.7375V20.2625C37.5 15.7125 34.7875 13 30.2375 13ZM30.975 22.625L23.8875 29.7125C23.7125 29.8875 23.475 29.9875 23.225 29.9875C22.975 29.9875 22.7375 29.8875 22.5625 29.7125L19.025 26.175C18.6625 25.8125 18.6625 25.2125 19.025 24.85C19.3875 24.4875 19.9875 24.4875 20.35 24.85L23.225 27.725L29.65 21.3C30.0125 20.9375 30.6125 20.9375 30.975 21.3C31.3375 21.6625 31.3375 22.25 30.975 22.625Z" fill="#DF3984"/>
</svg>
