<svg width="50" height="51" viewBox="0 0 50 51" fill="none" xmlns="http://www.w3.org/2000/svg">
<rect y="0.5" width="50" height="50" rx="10" fill="white" fill-opacity="0.1"/>
<path d="M30.2375 13H19.7625C15.2125 13 12.5 15.7125 12.5 20.2625V30.725C12.5 35.2875 15.2125 38 19.7625 38H30.225C34.775 38 37.4875 35.2875 37.4875 30.7375V20.2625C37.5 15.7125 34.7875 13 30.2375 13ZM19.5375 33.1875C19.5375 33.7 19.1125 34.125 18.6 34.125C18.0875 34.125 17.6625 33.7 17.6625 33.1875V30.6C17.6625 30.0875 18.0875 29.6625 18.6 29.6625C19.1125 29.6625 19.5375 30.0875 19.5375 30.6V33.1875ZM25.9375 33.1875C25.9375 33.7 25.5125 34.125 25 34.125C24.4875 34.125 24.0625 33.7 24.0625 33.1875V28C24.0625 27.4875 24.4875 27.0625 25 27.0625C25.5125 27.0625 25.9375 27.4875 25.9375 28V33.1875ZM32.3375 33.1875C32.3375 33.7 31.9125 34.125 31.4 34.125C30.8875 34.125 30.4625 33.7 30.4625 33.1875V25.4125C30.4625 24.9 30.8875 24.475 31.4 24.475C31.9125 24.475 32.3375 24.9 32.3375 25.4125V33.1875ZM32.3375 21.4625C32.3375 21.975 31.9125 22.4 31.4 22.4C30.8875 22.4 30.4625 21.975 30.4625 21.4625V20.25C27.275 23.525 23.2875 25.8375 18.825 26.95C18.75 26.975 18.675 26.975 18.6 26.975C18.175 26.975 17.8 26.6875 17.6875 26.2625C17.5625 25.7625 17.8625 25.25 18.375 25.125C22.5875 24.075 26.3375 21.8625 29.3125 18.7375H27.75C27.2375 18.7375 26.8125 18.3125 26.8125 17.8C26.8125 17.2875 27.2375 16.8625 27.75 16.8625H31.4125C31.4625 16.8625 31.5 16.8875 31.55 16.8875C31.6125 16.9 31.675 16.9 31.7375 16.925C31.8 16.95 31.85 16.9875 31.9125 17.025C31.95 17.05 31.9875 17.0625 32.025 17.0875C32.0375 17.1 32.0375 17.1125 32.05 17.1125C32.1 17.1625 32.1375 17.2125 32.175 17.2625C32.2125 17.3125 32.25 17.35 32.2625 17.4C32.2875 17.45 32.2875 17.5 32.3 17.5625C32.3125 17.625 32.3375 17.6875 32.3375 17.7625C32.3375 17.775 32.35 17.7875 32.35 17.8V21.4625H32.3375Z" fill="#DF3984"/>
</svg>
