<?xml version="1.0" standalone="no"?>
<!DOCTYPE svg PUBLIC "-//W3C//DTD SVG 20010904//EN"
 "http://www.w3.org/TR/2001/REC-SVG-20010904/DTD/svg10.dtd">
<svg version="1.0" xmlns="http://www.w3.org/2000/svg"
 width="1504.000000pt" height="1504.000000pt" viewBox="0 0 1504.000000 1504.000000"
 preserveAspectRatio="xMidYMid meet">
<metadata>
Created by potrace 1.14, written by Peter Selinger 2001-2017
</metadata>
<g transform="translate(0.000000,1504.000000) scale(0.100000,-0.100000)"
fill="#000000" stroke="none">
<path d="M3185 14892 l-21 -3 0 -7444 0 -7445 4363 0 4363 0 0 43 c4 430 0
1539 -5 1548 -4 6 -21 9 -37 7 -16 -3 -31 -1 -33 3 -3 4 -21 3 -40 -1 -19 -4
-35 -5 -35 -1 0 7 -105 5 -126 -3 -7 -3 -16 -2 -18 3 -3 4 -25 5 -49 1 -23 -3
-55 -3 -69 1 -14 4 -31 3 -38 -1 -7 -4 -24 -4 -39 0 -14 4 -36 4 -47 0 -11 -5
-27 -4 -34 0 -7 5 -23 5 -35 0 -12 -5 -28 -5 -35 0 -7 4 -24 4 -39 0 -14 -4
-35 -4 -46 0 -11 4 -32 4 -47 -1 -15 -4 -30 -4 -33 1 -3 5 -19 5 -35 0 -16 -5
-32 -5 -35 0 -3 4 -21 4 -40 0 -19 -4 -35 -5 -35 -1 0 3 -18 6 -40 6 -22 0
-40 -3 -40 -6 0 -4 -16 -3 -35 1 -19 4 -35 4 -35 0 0 -4 -16 -4 -35 0 -19 4
-37 4 -40 0 -3 -5 -18 -5 -33 -1 -15 5 -36 5 -47 1 -11 -4 -27 -4 -35 0 -8 4
-24 4 -35 0 -11 -4 -32 -4 -46 0 -15 4 -32 4 -40 0 -7 -5 -17 -6 -22 -3 -12 7
-116 7 -123 0 -3 -3 -16 -2 -28 2 -11 4 -34 5 -51 1 -16 -3 -42 -3 -56 1 -15
4 -32 3 -39 -1 -7 -4 -24 -4 -39 0 -14 4 -36 4 -47 0 -11 -5 -27 -4 -34 0 -7
5 -23 5 -35 0 -12 -5 -28 -5 -35 0 -7 4 -24 4 -39 0 -14 -4 -35 -4 -46 0 -11
4 -32 4 -47 -1 -15 -4 -30 -4 -33 1 -3 5 -19 5 -35 0 -16 -5 -32 -5 -35 0 -3
4 -21 4 -40 0 -19 -4 -35 -5 -35 -1 0 3 -18 6 -40 6 -22 0 -40 -3 -40 -6 0 -4
-16 -3 -35 1 -19 4 -35 4 -35 0 0 -4 -16 -4 -35 0 -19 4 -37 4 -40 0 -3 -5
-18 -5 -33 -1 -15 5 -36 5 -47 1 -11 -4 -27 -4 -35 0 -8 4 -24 4 -35 0 -11 -4
-32 -4 -46 0 -15 4 -32 4 -40 0 -7 -5 -17 -6 -22 -3 -12 7 -116 7 -123 0 -3
-3 -16 -2 -28 2 -11 4 -34 5 -51 1 -16 -3 -42 -3 -56 1 -15 4 -32 3 -39 -1 -7
-4 -24 -4 -39 0 -14 4 -36 4 -47 0 -11 -5 -27 -4 -34 0 -7 5 -23 5 -35 0 -12
-5 -28 -5 -35 0 -7 4 -24 4 -39 0 -14 -4 -35 -4 -46 0 -11 4 -32 4 -47 -1 -15
-4 -30 -4 -33 1 -3 5 -19 5 -35 0 -16 -5 -32 -5 -35 0 -3 4 -21 4 -40 0 -19
-4 -35 -5 -35 -1 0 3 -18 6 -40 6 -22 0 -40 -3 -40 -6 0 -4 -16 -3 -35 1 -19
4 -35 4 -35 0 0 -4 -16 -4 -35 0 -19 4 -37 4 -40 0 -3 -5 -18 -5 -33 -1 -15 5
-36 5 -47 1 -11 -4 -27 -4 -35 0 -8 4 -24 4 -35 0 -11 -4 -32 -4 -46 0 -15 4
-32 4 -40 0 -7 -5 -17 -6 -22 -3 -11 7 -112 7 -123 1 -5 -3 -18 -2 -29 2 -11
4 -33 4 -50 0 -16 -3 -41 -3 -55 0 -14 4 -34 3 -46 -1 -11 -4 -27 -4 -34 1 -7
5 -23 5 -34 0 -12 -4 -30 -4 -41 0 -11 4 -29 4 -41 0 -11 -5 -26 -5 -33 0 -7
4 -28 4 -47 0 -19 -4 -34 -4 -34 0 0 4 -16 4 -35 0 -19 -4 -35 -5 -35 -1 0 3
-34 6 -75 6 -41 0 -75 -3 -75 -6 0 -4 -16 -3 -35 1 -19 4 -37 4 -40 0 -3 -5
-18 -5 -33 -1 -15 5 -37 5 -48 1 -11 -5 -27 -4 -34 0 -7 5 -23 5 -35 0 -12 -5
-28 -5 -35 0 -7 4 -25 4 -41 0 -15 -5 -30 -6 -33 -3 -9 9 -86 9 -86 0 0 -5 -4
-6 -9 -2 -9 5 -125 9 -146 5 -5 -1 -14 -1 -20 0 -24 5 -164 2 -174 -4 -5 -4
-12 -2 -15 3 -3 5 -21 5 -41 1 -19 -4 -35 -5 -35 -1 0 3 -34 6 -75 6 -41 0
-75 -3 -75 -6 0 -4 -16 -3 -35 1 -19 4 -37 4 -40 0 -3 -5 -18 -5 -34 0 -15 4
-34 4 -41 0 -7 -5 -23 -5 -34 0 -12 4 -30 4 -42 0 -11 -5 -27 -4 -34 0 -7 4
-19 6 -25 4 -22 -9 -70 -10 -96 -3 -15 4 -32 3 -39 -1 -7 -5 -23 -5 -34 0 -11
4 -33 4 -47 0 -15 -4 -32 -4 -39 0 -7 5 -23 5 -35 0 -12 -5 -28 -5 -35 0 -7 4
-25 4 -41 0 -15 -5 -30 -6 -33 -3 -8 8 -226 9 -226 2 0 -4 -16 -3 -35 1 -19 4
-35 4 -35 0 0 -4 -16 -4 -35 0 -19 4 -35 5 -35 1 0 -12 -80 1 -81 13 0 6 0
2996 -1 6644 0 3647 -3 6633 -6 6633 -15 3 -1759 4 -1777 1z"/>
</g>
</svg>
