<svg width="50" height="50" viewBox="0 0 50 50" fill="none" xmlns="http://www.w3.org/2000/svg">
<rect x="0.5" y="0.5" width="49" height="49" rx="24.5" stroke="#555555"/>
<path class="svg-path" d="M24.9973 21.6652C23.1611 21.6652 21.6626 23.1638 21.6626 25C21.6626 26.8362 23.1611 28.3348 24.9973 28.3348C26.8335 28.3348 28.332 26.8362 28.332 25C28.332 23.1638 26.8335 21.6652 24.9973 21.6652ZM34.9989 25C34.9989 23.6191 35.0114 22.2506 34.9338 20.8722C34.8563 19.2711 34.4911 17.8502 33.3203 16.6794C32.147 15.5061 30.7286 15.1433 29.1275 15.0658C27.7466 14.9882 26.3782 15.0007 24.9998 15.0007C23.6189 15.0007 22.2505 14.9882 20.8721 15.0658C19.271 15.1433 17.8501 15.5086 16.6793 16.6794C15.5061 17.8527 15.1433 19.2711 15.0658 20.8722C14.9882 22.2531 15.0007 23.6216 15.0007 25C15.0007 26.3784 14.9882 27.7494 15.0658 29.1278C15.1433 30.7289 15.5086 32.1498 16.6793 33.3206C17.8526 34.4939 19.271 34.8567 20.8721 34.9342C22.253 35.0118 23.6214 34.9993 24.9998 34.9993C26.3807 34.9993 27.7491 35.0118 29.1275 34.9342C30.7286 34.8567 32.1495 34.4914 33.3203 33.3206C34.4936 32.1473 34.8563 30.7289 34.9338 29.1278C35.0139 27.7494 34.9989 26.3809 34.9989 25ZM24.9973 30.131C22.1579 30.131 19.8664 27.8394 19.8664 25C19.8664 22.1606 22.1579 19.869 24.9973 19.869C27.8367 19.869 30.1282 22.1606 30.1282 25C30.1282 27.8394 27.8367 30.131 24.9973 30.131ZM30.3383 20.8572C29.6754 20.8572 29.14 20.3218 29.14 19.6589C29.14 18.9959 29.6754 18.4606 30.3383 18.4606C31.0013 18.4606 31.5366 18.9959 31.5366 19.6589C31.5368 19.8163 31.5059 19.9722 31.4458 20.1177C31.3856 20.2632 31.2974 20.3954 31.1861 20.5067C31.0748 20.618 30.9426 20.7062 30.7971 20.7664C30.6516 20.8265 30.4957 20.8574 30.3383 20.8572Z" fill="#52D789"/>
</svg>
