<svg width="50" height="50" viewBox="0 0 50 50" fill="none" xmlns="http://www.w3.org/2000/svg">
<rect x="0.5" y="0.5" width="49" height="49" rx="24.5" stroke="#555555"/>
<path class="svg-path" d="M26.4551 34.3301C24.9863 34.5596 23.4842 34.4389 22.0709 33.9781C20.6576 33.5172 19.3731 32.7291 18.322 31.678C17.2709 30.6269 16.4828 29.3424 16.0219 27.9291C15.5611 26.5158 15.4404 25.0137 15.6699 23.5449C15.0909 22.4437 14.8793 21.1861 15.0661 19.956C15.2529 18.7259 15.8282 17.5877 16.708 16.708C17.5877 15.8282 18.7259 15.2529 19.956 15.0661C21.1861 14.8793 22.4437 15.0909 23.5449 15.6699C25.0137 15.4404 26.5158 15.5611 27.9291 16.0219C29.3424 16.4828 30.6269 17.2709 31.678 18.322C32.7291 19.3731 33.5172 20.6576 33.9781 22.0709C34.4389 23.4842 34.5596 24.9863 34.3301 26.4551C34.9091 27.5563 35.1207 28.8139 34.9339 30.044C34.7471 31.2741 34.1718 32.4123 33.292 33.292C32.4123 34.1718 31.2741 34.7471 30.044 34.9339C28.8139 35.1207 27.5563 34.9091 26.4551 34.3301ZM25.0578 30.7269H25.0133C28.2033 30.7269 29.7928 29.1875 29.7928 27.1248C29.7928 25.7942 29.1808 24.3802 26.765 23.8393L24.5624 23.3506C23.7238 23.1595 22.7608 22.9063 22.7608 22.1121C22.7608 21.3179 23.4494 20.7648 24.6757 20.7648C27.1526 20.7648 26.9271 22.462 28.1534 22.462C28.7931 22.462 29.3674 22.0821 29.3674 21.429C29.3674 19.9073 26.9271 18.7633 24.8623 18.7633C22.6175 18.7633 20.2272 19.7174 20.2272 22.2554C20.2272 23.475 20.6648 24.7767 23.0707 25.3799L26.0574 26.1252C26.9638 26.3495 27.1881 26.8571 27.1881 27.3159C27.1881 28.0789 26.4284 28.8242 25.0578 28.8242C22.3731 28.8242 22.7497 26.7616 21.3102 26.7616C20.6659 26.7616 20.1961 27.2037 20.1961 27.8401C20.1961 29.0775 21.6978 30.7269 25.0578 30.7269Z" fill="#52D789"/>
</svg>
