<svg width="50" height="50" viewBox="0 0 50 50" fill="none" xmlns="http://www.w3.org/2000/svg">
<rect x="0.5" y="0.5" width="49" height="49" rx="24.5" stroke="#555555"/>
<path class="svg-path" d="M35 18.8979C34.2645 19.2186 33.4744 19.4353 32.6438 19.5333C33.5008 19.0286 34.142 18.2343 34.4477 17.2986C33.6425 17.7693 32.7612 18.1006 31.8422 18.2781C31.2242 17.6288 30.4057 17.1984 29.5136 17.0537C28.6216 16.9091 27.706 17.0583 26.909 17.4783C26.1119 17.8982 25.4781 18.5654 25.1058 19.3761C24.7336 20.1869 24.6437 21.0959 24.8503 21.9621C23.2187 21.8814 21.6226 21.4641 20.1655 20.7372C18.7085 20.0102 17.423 18.9899 16.3926 17.7424C16.0403 18.3405 15.8377 19.034 15.8377 19.7725C15.8373 20.4373 16.0036 21.092 16.322 21.6784C16.6404 22.2648 17.1009 22.7648 17.6627 23.134C17.0112 23.1136 16.374 22.9403 15.8042 22.6286V22.6806C15.8041 23.6131 16.1319 24.5169 16.7319 25.2386C17.3318 25.9603 18.1671 26.4555 19.0958 26.6402C18.4914 26.8012 17.8577 26.8249 17.2426 26.7096C17.5046 27.5119 18.0151 28.2135 18.7024 28.7162C19.3898 29.2188 20.2197 29.4974 21.0759 29.5128C19.6224 30.6357 17.8273 31.2448 15.9795 31.2421C15.6521 31.2422 15.3251 31.2234 15 31.1858C16.8757 32.3726 19.0591 33.0024 21.2891 33C28.8378 33 32.9644 26.8474 32.9644 21.5113C32.9644 21.338 32.96 21.1629 32.9521 20.9895C33.7548 20.4183 34.4476 19.7109 34.9982 18.9005L35 18.8979Z" fill="#52D789"/>
</svg>
